<?xml version="1.0" encoding="UTF-8"?>
<svg id="Layer_1" data-name="Layer 1" xmlns="http://www.w3.org/2000/svg" viewBox="0 0 595.28 595.28">
  <defs>
    <style>
      .cls-1 {
        fill: #f48483;
      }

      .cls-2 {
        fill: #f0504e;
      }

      .cls-3 {
        fill: #f1635c;
      }
    </style>
  </defs>
  <path class="cls-1" d="M516.8,198.43l-187.48,101.33c-11.09,5.99-18.02,17.59-18.02,30.21v217.15c0,14.65,15.97,23.73,28.57,16.25l195.58-116.3c5.73-3.41,9.25-9.58,9.25-16.25v-215.77c0-14.31-15.3-23.43-27.9-16.62ZM462.59,426.73c-11.65,5.68-22.44,4.78-27.71-3.65,1.79,14.18,4.84,35.32,12.25,38.19l-28.42,13.98c7.3-10.11,9.99-34.06,11.5-49.88-5.1,13.59-15.84,25.09-27.39,30.78-16.58,8.08-30.04-2.33-30.22-23.21-.19-23.97,14.01-48.03,31.75-77.83,22.09-37.15,26.89-54.01,27.15-54.88.3.61,5.32,12.64,27.86,27.79,18.09,12.17,32.59,22.11,32.79,46.06.19,20.94-13.06,44.52-29.55,52.65Z"/>
  <path class="cls-3" d="M503.81,175.84c12.67-6.87,13.33-24.81,1.19-32.57L320.25,25.24c-9.4-6.01-21.36-6.27-31.01-.67l-195.69,113.28c-12.64,7.31-12.54,25.59.15,32.79l188.17,106.81c10.29,5.84,22.87,5.97,33.28.35l188.66-101.97ZM352.54,130.84c15.26-8.78,39.94-8.73,55.12.11,15.17,8.84,15.09,23.13-.19,31.92-15.28,8.77-39.98,8.71-55.14-.13-15.17-8.84-15.07-23.11.2-31.9ZM275.05,85.67c15.28-8.77,39.96-8.71,55.12.13,15.17,8.84,15.11,23.13-.17,31.9-15.28,8.78-39.98,8.73-55.14-.11-15.17-8.84-15.09-23.13.19-31.92ZM246.8,165.51c-15.28,8.78-39.96,8.73-55.14-.11-15.17-8.84-15.07-23.13.2-31.92,15.26-8.77,39.96-8.73,55.12.11,15.19,8.84,15.09,23.15-.19,31.92ZM269.15,210.55c-15.17-8.84-15.09-23.11.19-31.9,15.28-8.78,39.98-8.75,55.14.11,15.17,8.84,15.09,23.13-.19,31.92-15.28,8.77-39.98,8.71-55.14-.13Z"/>
  <g>
    <path class="cls-2" d="M162.04,333.27c-4.47-1.94-8.9-2.9-13.16-2.81-19.93.39-30.5,23.36-23.52,51.2,5.45,21.79,20.04,40.22,35.68,47.03,4.35,1.9,8.8,2.9,13.16,2.83,19.97-.37,30.5-23.34,23.54-51.22-5.29-21.12-19.63-40.01-35.7-47.03Z"/>
    <path class="cls-2" d="M267.86,299.45l-187.76-106.56c-12.62-7.15-28.23,1.95-28.23,16.43v221.5c0,6.66,3.5,12.84,9.23,16.25l195.58,116.3c12.6,7.48,28.57-1.6,28.57-16.25v-217.8c0-12.36-6.64-23.77-17.38-29.87ZM228.82,416.7l-.22,3-21.4-11.35c-.37,3-.95,5.92-1.73,8.64-.3,1-.63,2.05-1.04,3.16-.11.28-.2.58-.32.84l19.37,19.76-1.08,2.34c-4.15,9.04-10.24,16.23-17.57,20.81l-1.9,1.21-13.77-26.37c-1.51.78-3.11,1.41-4.75,1.88-1.71.52-3.48.86-5.3,1.02l7.07,28.33-2.33.06c-7.54.11-15.34-1.53-23.21-4.97-1.71-.74-3.44-1.58-5.16-2.49l-2.48-1.32,1.92-25.94c-2.42-1.47-4.86-3.2-7.24-5.12-1.32-1.08-2.62-2.21-3.89-3.41l-9.32,20.3-2.23-2.29c-8.65-8.8-16.43-19.67-22.56-31.36l-1.58-3.07,16.49-10.33c-1.04-2.16-1.99-4.37-2.87-6.61l-.35-.93c-.73-1.92-1.38-3.8-1.95-5.69-.19-.58-.35-1.15-.52-1.69l-20.29.35-.82-3.26c-3.22-12.84-4.41-25.25-3.54-36.94l.22-3,21.42,11.37c.45-3.68,1.23-7.2,2.31-10.48.24-.74.5-1.45.76-2.16l-19.36-19.75,1.08-2.36c4.17-9.03,10.24-16.25,17.55-20.83l1.92-1.19,13.77,26.39c1.53-.78,3.11-1.43,4.75-1.92,1.69-.5,3.48-.82,5.32-1l-7.11-28.33,2.36-.04c7.56-.15,15.34,1.53,23.23,4.97,1.69.74,3.41,1.56,5.12,2.48l2.48,1.32-1.94,25.94c.84.52,1.69,1.06,2.55,1.64,2.96,1.99,5.83,4.28,8.6,6.89l9.32-20.3,2.25,2.29c8.73,8.93,16.32,19.49,22.52,31.38l1.6,3.05-16.49,10.31c1.14,2.4,2.18,4.82,3.11,7.24.97,2.55,1.82,5.14,2.59,7.72l20.29-.39.82,3.29c3.2,12.82,4.39,25.25,3.52,36.9Z"/>
  </g>
</svg>